{"asset":{"version":"2.0","generator":"THREE.GLTFExporter"},"scenes":[{"nodes":[0],"name":"AuxScene"}],"scene":0,"nodes":[{"mesh":0}],"bufferViews":[{"buffer":0,"byteOffset":0,"byteLength":174996,"target":34962,"byteStride":12},{"buffer":0,"byteOffset":174996,"byteLength":174996,"target":34962,"byteStride":12}],"buffers":[{"byteLength":349992,"uri":"data:application/octet-stream;base64,"}],"accessors":[{"bufferView":0,"componentType":5126,"count":14583,"max":[99.46817016601562,68.09236145019531,35.732086181640625],"min":[-99.7318344116211,-19.907638549804688,-363.56793212890625],"type":"VEC3"},{"bufferView":1,"componentType":5126,"count":14583,"max":[0.9116839170455933,1,0.5546977519989014],"min":[-0.7844622135162354,0.34188365936279297,-0.30578625202178955],"type":"VEC3"}],"materials":[{"pbrMetallicRoughness":{"baseColorFactor":[0.5019607843137255,0.5019607843137255,0.5019607843137255,1],"metallicFactor":0,"roughnessFactor":1}}],"meshes":[{"primitives":[{"mode":4,"attributes":{"POSITION":0,"NORMAL":1},"material":0}]}]}