{"asset":{"version":"2.0","generator":"THREE.GLTFExporter"},"scenes":[{"nodes":[0],"name":"AuxScene"}],"scene":0,"nodes":[{"mesh":0}],"bufferViews":[{"buffer":0,"byteOffset":0,"byteLength":150516,"target":34962,"byteStride":12},{"buffer":0,"byteOffset":150516,"byteLength":150516,"target":34962,"byteStride":12}],"buffers":[{"byteLength":301032,"uri":"data:application/octet-stream;base64,"}],"accessors":[{"bufferView":0,"componentType":5126,"count":12543,"max":[99.50001525878906,70.70186614990234,19.300018310546875],"min":[-99.4000015258789,-17.09813690185547,-379.3999938964844],"type":"VEC3"},{"bufferView":1,"componentType":5126,"count":12543,"max":[0.8885384202003479,1,0.624692440032959],"min":[-0.9407185316085815,0.2822241485118866,-0.6744471788406372],"type":"VEC3"}],"materials":[{"pbrMetallicRoughness":{"baseColorFactor":[0.5019607843137255,0.5019607843137255,0.5019607843137255,1],"metallicFactor":0,"roughnessFactor":1}}],"meshes":[{"primitives":[{"mode":4,"attributes":{"POSITION":0,"NORMAL":1},"material":0}]}]}