{
  "accessors": [
    {
      "bufferView": 2,
      "componentType": 5126,
      "count": 10364,
      "max": [
        1,
        0.95903605222702026,
        0.28023159503936768
      ],
      "min": [
        -1,
        -0.95903611183166504,
        -0.28023159503936768
      ],
      "type": "VEC3"
    },
    {
      "bufferView": 2,
      "byteOffset": 124368,
      "componentType": 5126,
      "count": 10364,
      "max": [
        0.99998641014099121,
        1,
        0.99999850988388062
      ],
      "min": [
        -0.99998641014099121,
        -1,
        -0.99999797344207764
      ],
      "type": "VEC3"
    },
    {
      "bufferView": 3,
      "componentType": 5126,
      "count": 10364,
      "max": [
        1,
        0.99997633695602417,
        0.9999968409538269,
        1
      ],
      "min": [
        -1,
        -0.99998641014099121,
        -0.99999690055847168,
        -1
      ],
      "type": "VEC4"
    },
    {
      "bufferView": 1,
      "componentType": 5126,
      "count": 10364,
      "max": [
        1.9969638586044312,
        0.99571877717971802
      ],
      "min": [
        0.0044380025938153267,
        0.0044866800308227539
      ],
      "type": "VEC2"
    },
    {
      "bufferView": 1,
      "byteOffset": 82912,
      "componentType": 5126,
      "count": 10364,
      "max": [
        1.9969638586044312,
        0.99571877717971802
      ],
      "min": [
        0.0044380025938153267,
        0.0044866800308227539
      ],
      "type": "VEC2"
    },
    {
      "bufferView": 1,
      "byteOffset": 165824,
      "componentType": 5126,
      "count": 10364,
      "max": [
        1.9969638586044312,
        0.99571877717971802
      ],
      "min": [
        0.0044380025938153267,
        0.0044866800308227539
      ],
      "type": "VEC2"
    },
    {
      "bufferView": 1,
      "byteOffset": 248736,
      "componentType": 5126,
      "count": 10364,
      "max": [
        1.9969638586044312,
        0.99571877717971802
      ],
      "min": [
        0.0044380025938153267,
        0.0044866800308227539
      ],
      "type": "VEC2"
    },
    {
      "bufferView": 1,
      "byteOffset": 331648,
      "componentType": 5126,
      "count": 10364,
      "max": [
        1.9969638586044312,
        0.99571877717971802
      ],
      "min": [
        0.0044380025938153267,
        0.0044866800308227539
      ],
      "type": "VEC2"
    },
    {
      "bufferView": 0,
      "componentType": 5125,
      "count": 52530,
      "max": [
        10363
      ],
      "min": [
        0
      ],
      "type": "SCALAR"
    }
  ],
  "asset": {
    "extras": {
      "author": "D.art (https://sketchfab.com/D.art)",
      "license": "CC-BY-NC-4.0 (http://creativecommons.org/licenses/by-nc/4.0/)",
      "source": "https://sketchfab.com/3d-models/volkswagen-steering-wheel-dc70d68a30304549ad432596ca13791b",
      "title": "Volkswagen steering wheel"
    },
    "generator": "Sketchfab-9.69.0",
    "version": "2.0"
  },
  "bufferViews": [
    {
      "buffer": 0,
      "byteLength": 210120,
      "byteOffset": 0,
      "name": "floatBufferViews",
      "target": 34963
    },
    {
      "buffer": 0,
      "byteLength": 414560,
      "byteOffset": 210120,
      "byteStride": 8,
      "name": "floatBufferViews",
      "target": 34962
    },
    {
      "buffer": 0,
      "byteLength": 248736,
      "byteOffset": 624680,
      "byteStride": 12,
      "name": "floatBufferViews",
      "target": 34962
    },
    {
      "buffer": 0,
      "byteLength": 165824,
      "byteOffset": 873416,
      "byteStride": 16,
      "name": "floatBufferViews",
      "target": 34962
    }
  ],
  "buffers": [
    {
      "byteLength": 1039240,
      "uri": "scene.bin"
    }
  ],
  "images": [
    {
      "uri": "textures/07_-_Default_baseColor.png"
    },
    {
      "uri": "textures/07_-_Default_metallicRoughness.png"
    },
    {
      "uri": "textures/07_-_Default_normal.png"
    }
  ],
  "materials": [
    {
      "doubleSided": false,
      "emissiveFactor": [
        0,
        0,
        0
      ],
      "name": "07_-_Default",
      "normalTexture": {
        "index": 2,
        "scale": 1,
        "texCoord": 0
      },
      "occlusionTexture": {
        "index": 1,
        "strength": 1,
        "texCoord": 0
      },
      "pbrMetallicRoughness": {
        "baseColorFactor": [
          1,
          1,
          1,
          1
        ],
        "baseColorTexture": {
          "index": 0,
          "texCoord": 0
        },
        "metallicFactor": 1,
        "metallicRoughnessTexture": {
          "index": 1,
          "texCoord": 0
        },
        "roughnessFactor": 1
      }
    }
  ],
  "meshes": [
    {
      "primitives": [
        {
          "attributes": {
            "NORMAL": 1,
            "POSITION": 0,
            "TANGENT": 2,
            "TEXCOORD_0": 3,
            "TEXCOORD_1": 4,
            "TEXCOORD_2": 5,
            "TEXCOORD_3": 6,
            "TEXCOORD_4": 7
          },
          "indices": 8,
          "material": 0,
          "mode": 4
        }
      ]
    }
  ],
  "nodes": [
    {
      "children": [
        1
      ],
      "name": "RootNode (gltf orientation matrix)",
      "rotation": [
        -0.70710678118654746,
        -0,
        -0,
        0.70710678118654757
      ]
    },
    {
      "children": [
        2
      ],
      "name": "RootNode (model correction matrix)"
    },
    {
      "children": [
        3
      ],
      "name": "root"
    },
    {
      "children": [
        4
      ],
      "matrix": [
        1,
        0,
        0,
        0,
        0,
        2.2204460492503131e-16,
        1,
        0,
        0,
        -1,
        2.2204460492503131e-16,
        0,
        0,
        0,
        0,
        1
      ],
      "name": "GLTF_SceneRootNode"
    },
    {
      "children": [
        5
      ],
      "matrix": [
        28.898811340332031,
        0,
        0,
        0,
        0,
        28.898811340332031,
        0,
        0,
        0,
        0,
        28.898811340332031,
        0,
        0,
        25.251016616821289,
        -2.5267410278320312,
        1
      ],
      "name": "root_0"
    },
    {
      "children": [
        6
      ],
      "name": "Object014_1"
    },
    {
      "children": [
        7
      ],
      "name": "Object014_2"
    },
    {
      "mesh": 0,
      "name": ""
    }
  ],
  "samplers": [
    {
      "magFilter": 9729,
      "minFilter": 9987,
      "wrapS": 10497,
      "wrapT": 10497
    }
  ],
  "scene": 0,
  "scenes": [
    {
      "name": "OSG_Scene",
      "nodes": [
        0
      ]
    }
  ],
  "textures": [
    {
      "sampler": 0,
      "source": 0
    },
    {
      "sampler": 0,
      "source": 1
    },
    {
      "sampler": 0,
      "source": 2
    }
  ]
}

